# xmcd
#
# Track frame offsets: 
#        150
#        17052
#        33350
#        42607
#        59931
#        78882
#        98263
#        118811
#        134858
#        153546
#        171455
#        187234
#        201700
#        216868
#        244175
#        262448
#        273981
#        293470
#        309918
#        330999
#
# Disc length: 4775 seconds
#
# Revision: 0
# Processed by: cddbd v1.5.2PL0 Copyright (c) Steve Scherf et al.
# Submitted via: ExactAudioCopy v0.99pb3
#
DISCID=3c12a514
DTITLE=Various Artist - Ultimate Soul Collection Soul 100 Hits CD3
DYEAR=2008
DGENRE=Soul
TTITLE0=Luther Vandross - Never Too Much
TTITLE1=Earth, Wind and Fire - After The Love Has Gone
TTITLE2=Bill Withers - Ain't No Sunshine
TTITLE3=Smokey Robinson - Being With You
TTITLE4=Dionne Warwick - Heartbreaker
TTITLE5=Brenda Russell - Piano in the Dark
TTITLE6=Oleta Adams - Get Here
TTITLE7=Mica Paris - My One Temptation
TTITLE8=Omar - There's Nothing Like This
TTITLE9=Des'ree - You Gotta Be
TTITLE10=The Pasadenas - I'm Doing Fine Now
TTITLE11=Terence Trent D'Arby - If You Let Me Stay
TTITLE12=The Whispers - And The Beat Goes On
TTITLE13=Leo's Sunshipp - Give Me The Sunshine
TTITLE14=Lonnie Hill - Galveston Bay
TTITLE15=Etta James - I'd Rather Go Blind
TTITLE16=Dina Carroll - Don't Be A Stranger
TTITLE17=Vanessa Williams - Save The Best For Last
TTITLE18=Will Downing - A Love Supreme
TTITLE19=Don Blackman - Ghetto Lament
EXTD=
EXTT0=
EXTT1=
EXTT2=
EXTT3=
EXTT4=
EXTT5=
EXTT6=
EXTT7=
EXTT8=
EXTT9=
EXTT10=
EXTT11=
EXTT12=
EXTT13=
EXTT14=
EXTT15=
EXTT16=
EXTT17=
EXTT18=
EXTT19=
PLAYORDER=
